<svg width="64" height="66" viewBox="0 0 64 66" fill="none" xmlns="http://www.w3.org/2000/svg">
<rect width="64" height="66" fill="white"/>
<path d="M17.632 18.016C18.432 18.048 19.504 18.08 20.848 18.112C22.224 18.144 23.584 18.16 24.928 18.16C26.464 18.16 27.952 18.144 29.392 18.112C30.832 18.08 31.856 18.064 32.464 18.064C35.44 18.064 37.904 18.4 39.856 19.072C41.84 19.712 43.312 20.656 44.272 21.904C45.264 23.152 45.76 24.656 45.76 26.416C45.76 27.504 45.536 28.608 45.088 29.728C44.64 30.816 43.872 31.84 42.784 32.8C41.728 33.728 40.272 34.48 38.416 35.056C36.56 35.6 34.224 35.872 31.408 35.872H26.8V34.912H30.928C32.816 34.912 34.24 34.56 35.2 33.856C36.192 33.12 36.864 32.16 37.216 30.976C37.6 29.76 37.792 28.416 37.792 26.944C37.792 24.416 37.344 22.464 36.448 21.088C35.552 19.68 34.016 18.976 31.84 18.976C30.592 18.976 29.776 19.248 29.392 19.792C29.04 20.336 28.864 21.44 28.864 23.104V46.912C28.864 48.064 28.944 48.928 29.104 49.504C29.296 50.08 29.648 50.464 30.16 50.656C30.672 50.848 31.44 50.976 32.464 51.04V52C31.6 51.936 30.512 51.904 29.2 51.904C27.888 51.872 26.56 51.856 25.216 51.856C23.68 51.856 22.224 51.872 20.848 51.904C19.504 51.904 18.432 51.936 17.632 52V51.04C18.656 50.976 19.424 50.848 19.936 50.656C20.448 50.464 20.784 50.08 20.944 49.504C21.136 48.928 21.232 48.064 21.232 46.912V23.104C21.232 21.92 21.136 21.056 20.944 20.512C20.784 19.936 20.432 19.552 19.888 19.36C19.376 19.136 18.624 19.008 17.632 18.976V18.016ZM26.704 35.056C28.08 35.088 29.264 35.152 30.256 35.248C31.28 35.344 32.176 35.44 32.944 35.536C33.712 35.6 34.4 35.648 35.008 35.68C37.92 35.936 40.064 36.56 41.44 37.552C42.848 38.544 43.76 40.032 44.176 42.016L45.28 46.96C45.568 48.24 45.872 49.136 46.192 49.648C46.512 50.16 46.976 50.416 47.584 50.416C48 50.384 48.336 50.288 48.592 50.128C48.88 49.936 49.184 49.664 49.504 49.312L50.176 49.888C49.312 50.88 48.384 51.584 47.392 52C46.4 52.448 45.2 52.672 43.792 52.672C42.064 52.672 40.64 52.304 39.52 51.568C38.4 50.832 37.664 49.472 37.312 47.488L36.448 42.688C36.224 41.344 35.952 40.176 35.632 39.184C35.312 38.16 34.864 37.36 34.288 36.784C33.744 36.176 32.976 35.872 31.984 35.872H26.8L26.704 35.056Z" fill="black"/>
</svg>
